<?xml version="1.0" encoding="UTF-8" standalone="no"?>
<svg
   version="1.1"
   id="svg41"
   width="50"
   height="50"
   viewBox="0 0 50 50"
   xmlns="http://www.w3.org/2000/svg"
   xmlns:svg="http://www.w3.org/2000/svg">
    <path
       style="fill:#000000;stroke-width:0.666667"
       d="m 6.4094494,37.926508 c -0.803078,-0.803078 -0.464884,-4.310979 0.64012,-6.639601 1.672952,-3.525485 3.7936796,-4.850737 7.6227856,-4.763517 1.810957,0.04125 3.292649,0.09978 3.292649,0.13007 0,0.03029 -0.6,2.15316 -1.333333,4.717493 -1.545638,5.40481 -1.63153,6.23153 -0.533334,5.133333 1.361632,-1.361631 2.145204,-0.879433 0.866667,0.533333 -1.443924,1.595518 -3.378335,1.730166 -4.183616,0.291208 -0.52888,-0.945056 -0.663763,-0.945056 -1.44809,0 -0.865723,1.043134 -4.0873406,1.43419 -4.9238486,0.597681 z m 6.9392516,-4.431437 c 1.402157,-2.269478 1.479108,-5.847685 0.135242,-6.288686 -1.279023,-0.419722 -4.0054546,2.739094 -4.7774796,5.535141 -1.332855,4.8272 1.8101896,5.337391 4.6422376,0.753545 z m 6.616303,-8.072659 c 0,-0.187157 1.343954,-1.853506 2.986565,-3.702998 4.293154,-4.833862 5.31001,-7.022989 4.344705,-9.353442 -1.475643,-3.562517 -5.615721,-2.917275 -4.880149,0.760585 0.350488,1.752438 0.228968,2.011414 -0.846626,1.804273 -1.8948,-0.364905 -1.901319,-2.323659 -0.01401,-4.210964 2.14577,-2.14577 5.020923,-2.203306 6.959976,-0.139279 2.440395,2.597682 1.894925,4.755746 -2.318604,9.173191 l -3.768148,3.950508 h 3.122963 c 2.606981,0 3.227352,-0.247833 3.754774,-1.5 0.546363,-1.297133 0.61108,-1.184429 0.478518,0.833334 l -0.153294,2.333333 -4.833334,0.195873 c -2.658336,0.10773 -4.833336,0.04274 -4.833336,-0.144414 z"
       />
</svg>
