<?xml version="1.0" encoding="UTF-8" standalone="no"?>
<svg
   version="1.1"
   id="svg41"
   width="50"
   height="50"
   viewBox="0 0 50 50"
   xmlns="http://www.w3.org/2000/svg"
   xmlns:svg="http://www.w3.org/2000/svg">
    <path
       style="fill:#000000;stroke-width:0.666667"
       d="m 64.713164,37.768759 c -0.757573,-0.479843 -0.553167,-1.820449 1.166667,-7.651432 2.23154,-7.565897 2.46804,-9.079707 1.418506,-9.079707 -0.366666,0 -0.666666,-0.3 -0.666666,-0.666667 0,-0.366667 1.035653,-0.666667 2.301446,-0.666667 h 2.301447 l -0.9609,3.166667 c -1.279613,4.217009 -1.308827,4.136959 1.352367,3.705107 2.881313,-0.467574 4.338973,0.621884 4.338973,3.242963 0,4.395956 -3.86154,8.558926 -7.92324,8.541721 -1.325553,-0.0056 -2.82342,-0.272008 -3.3286,-0.591985 z m 6.52464,-1.666703 c 1.93702,-2.061865 2.8611,-5.959815 1.767447,-7.455469 -1.004894,-1.374273 -3.402927,-0.755984 -4.417007,1.138846 -1.09714,2.050027 -2.514473,7.13873 -2.10294,7.550264 0.88476,0.88476 3.367907,0.240192 4.7525,-1.233641 z m 7.393867,-11.025642 c 0,-0.34533 1.508413,-2.35162 3.352026,-4.458422 1.843614,-2.106803 3.531694,-4.546383 3.75128,-5.421289 0.860894,-3.430072 -2.324373,-6.363121 -4.880493,-4.494042 -0.977953,0.715096 -1.028873,1.030382 -0.30692,1.900281 0.97832,1.178806 0.485587,2.434678 -0.95524,2.434678 -1.592347,0 -1.197733,-3.758335 0.52102,-4.962197 2.899427,-2.030839 6.598813,-1.01182 7.68996,2.118246 0.87906,2.521668 0.163587,4.0866 -3.437453,7.518607 -1.687134,1.607941 -3.067514,3.163938 -3.067514,3.45777 0,0.293832 1.209667,0.53424 2.688147,0.53424 2.164627,0 2.805573,-0.292131 3.29108,-1.5 0.523227,-1.30172 0.608513,-1.169534 0.64518,1 l 0.04226,2.5 h -4.666667 c -2.566666,0 -4.666666,-0.282542 -4.666666,-0.627872 z"
       />
</svg>
