<?xml version="1.0" encoding="UTF-8" standalone="no"?>
<svg
   version="1.1"
   id="svg41"
   width="50"
   height="50"
   viewBox="0 0 50 50"
   xmlns="http://www.w3.org/2000/svg"
   xmlns:svg="http://www.w3.org/2000/svg">
    <path
       style="fill:#000000;stroke-width:0.666667"
       d="m 122.85819,36.634831 c -1.02364,-1.56226 -1.04186,-2.010728 -0.18204,-4.478267 1.58178,-4.539384 7.7136,-7.486952 9.95552,-4.785611 0.66212,0.797811 0.66212,1.202189 0,2 -1.28148,1.54408 -2.19277,1.192141 -1.72624,-0.666667 0.33524,-1.335729 0.16908,-1.666666 -0.83682,-1.666666 -3.15092,0 -6.68865,6.688497 -4.76421,9.007307 1.06209,1.279746 3.59574,1.275773 4.6606,-0.0073 0.45646,-0.55 1.16819,-0.99052 1.58163,-0.978933 0.41344,0.01159 -0.09,0.761587 -1.1188,1.666667 -2.59964,2.28706 -6.03874,2.245933 -7.56964,-0.09052 z m 11.77348,-11.212419 c 0,-0.187157 1.34395,-1.853506 2.98656,-3.702998 4.29316,-4.833862 5.31001,-7.022989 4.3447,-9.353442 -1.47564,-3.562517 -5.61572,-2.917275 -4.88014,0.760585 0.35048,1.752438 0.22896,2.011414 -0.84663,1.804273 -1.8948,-0.364905 -1.90132,-2.323659 -0.014,-4.210964 2.14577,-2.14577 5.02093,-2.203306 6.95998,-0.139279 2.44039,2.597682 1.89492,4.755746 -2.31861,9.173191 l -3.76816,3.950508 h 3.12296 c 2.60698,0 3.22736,-0.247833 3.75478,-1.5 0.54636,-1.297133 0.61108,-1.184429 0.47852,0.833334 l -0.1533,2.333333 -4.83333,0.195873 c -2.65833,0.10773 -4.83333,0.04275 -4.83333,-0.144414 z"
       />
</svg>
