<?xml version="1.0" encoding="UTF-8" standalone="no"?>
<svg
   version="1.1"
   id="svg41"
   width="164"
   height="50"
   viewBox="0 0 164 50"
   xmlns="http://www.w3.org/2000/svg"
   xmlns:svg="http://www.w3.org/2000/svg">
    <path
       style="fill:#000000;stroke-width:0.666667"
       d="m 47.131671,38.653559 c -0.275,-0.277656 -0.5,-2.104828 -0.5,-4.060384 v -3.555556 h -3.666667 c -2.016667,0 -3.666667,-0.3 -3.666667,-0.666666 0,-0.366667 1.65,-0.666667 3.666667,-0.666667 h 3.666667 V 26.03762 c 0,-2.016667 0.3,-3.666667 0.666666,-3.666667 0.366667,0 0.666667,1.65 0.666667,3.666667 v 3.666666 h 3.627322 c 1.995027,0 3.812732,0.3 4.039345,0.666667 0.257228,0.416204 -1.093585,0.666666 -3.595511,0.666666 h -4.007533 l -0.198478,4.060385 c -0.109163,2.233211 -0.423478,3.833211 -0.698478,3.555555 z M 6.4094494,37.926508 c -0.803078,-0.803078 -0.464884,-4.310979 0.64012,-6.639601 1.672952,-3.525485 3.7936796,-4.850737 7.6227856,-4.763517 1.810957,0.04125 3.292649,0.09978 3.292649,0.13007 0,0.03029 -0.6,2.15316 -1.333333,4.717493 -1.545638,5.40481 -1.63153,6.23153 -0.533334,5.133333 1.361632,-1.361631 2.145204,-0.879433 0.866667,0.533333 -1.443924,1.595518 -3.378335,1.730166 -4.183616,0.291208 -0.52888,-0.945056 -0.663763,-0.945056 -1.44809,0 -0.865723,1.043134 -4.0873406,1.43419 -4.9238486,0.597681 z m 6.9392516,-4.431437 c 1.402157,-2.269478 1.479108,-5.847685 0.135242,-6.288686 -1.279023,-0.419722 -4.0054546,2.739094 -4.7774796,5.535141 -1.332855,4.8272 1.8101896,5.337391 4.6422376,0.753545 z m 51.364463,4.273688 c -0.757573,-0.479843 -0.553167,-1.820449 1.166667,-7.651432 2.23154,-7.565897 2.46804,-9.079707 1.418506,-9.079707 -0.366666,0 -0.666666,-0.3 -0.666666,-0.666667 0,-0.366667 1.035653,-0.666667 2.301446,-0.666667 h 2.301447 l -0.9609,3.166667 c -1.279613,4.217009 -1.308827,4.136959 1.352367,3.705107 2.881313,-0.467574 4.338973,0.621884 4.338973,3.242963 0,4.395956 -3.86154,8.558926 -7.92324,8.541721 -1.325553,-0.0056 -2.82342,-0.272008 -3.3286,-0.591985 z m 6.52464,-1.666703 c 1.93702,-2.061865 2.8611,-5.959815 1.767447,-7.455469 -1.004894,-1.374273 -3.402927,-0.755984 -4.417007,1.138846 -1.09714,2.050027 -2.514473,7.13873 -2.10294,7.550264 0.88476,0.88476 3.367907,0.240192 4.7525,-1.233641 z m 51.620386,0.532775 c -1.02364,-1.56226 -1.04186,-2.010728 -0.18204,-4.478267 1.58178,-4.539384 7.7136,-7.486952 9.95552,-4.785611 0.66212,0.797811 0.66212,1.202189 0,2 -1.28148,1.54408 -2.19277,1.192141 -1.72624,-0.666667 0.33524,-1.335729 0.16908,-1.666666 -0.83682,-1.666666 -3.15092,0 -6.68865,6.688497 -4.76421,9.007307 1.06209,1.279746 3.59574,1.275773 4.6606,-0.0073 0.45646,-0.55 1.16819,-0.99052 1.58163,-0.978933 0.41344,0.01159 -0.09,0.761587 -1.1188,1.666667 -2.59964,2.28706 -6.03874,2.245933 -7.56964,-0.09052 z M 97.298334,33.037619 c 0,-0.407224 3.097996,-0.666666 7.960656,-0.666666 4.58798,0 8.13522,0.282445 8.37268,0.666666 0.26632,0.430928 -2.54864,0.666667 -7.96066,0.666667 -5.13734,0 -8.372676,-0.257611 -8.372676,-0.666667 z m 0,-5.333333 c 0,-0.407224 3.097996,-0.666666 7.960656,-0.666666 4.58798,0 8.13522,0.282445 8.37268,0.666666 0.26632,0.430928 -2.54864,0.666667 -7.96066,0.666667 -5.13734,0 -8.372676,-0.257611 -8.372676,-0.666667 z m -77.33333,-2.281874 c 0,-0.187157 1.343954,-1.853506 2.986565,-3.702998 4.293154,-4.833862 5.31001,-7.022989 4.344705,-9.353442 -1.475643,-3.562517 -5.615721,-2.917275 -4.880149,0.760585 0.350488,1.752438 0.228968,2.011414 -0.846626,1.804273 -1.8948,-0.364905 -1.901319,-2.323659 -0.01401,-4.210964 2.14577,-2.14577 5.020923,-2.203306 6.959976,-0.139279 2.440395,2.597682 1.894925,4.755746 -2.318604,9.173191 l -3.768148,3.950508 h 3.122963 c 2.606981,0 3.227352,-0.247833 3.754774,-1.5 0.546363,-1.297133 0.61108,-1.184429 0.478518,0.833334 l -0.153294,2.333333 -4.833334,0.195873 c -2.658336,0.10773 -4.833336,0.04274 -4.833336,-0.144414 z m 58.666667,-0.345998 c 0,-0.34533 1.508413,-2.35162 3.352026,-4.458422 1.843614,-2.106803 3.531694,-4.546383 3.75128,-5.421289 0.860894,-3.430072 -2.324373,-6.363121 -4.880493,-4.494042 -0.977953,0.715096 -1.028873,1.030382 -0.30692,1.900281 0.97832,1.178806 0.485587,2.434678 -0.95524,2.434678 -1.592347,0 -1.197733,-3.758335 0.52102,-4.962197 2.899427,-2.030839 6.598813,-1.01182 7.68996,2.118246 0.87906,2.521668 0.163587,4.0866 -3.437453,7.518607 -1.687134,1.607941 -3.067514,3.163938 -3.067514,3.45777 0,0.293832 1.209667,0.53424 2.688147,0.53424 2.164627,0 2.805573,-0.292131 3.29108,-1.5 0.523227,-1.30172 0.608513,-1.169534 0.64518,1 l 0.04226,2.5 h -4.666667 c -2.566666,0 -4.666666,-0.282542 -4.666666,-0.627872 z m 55.999999,0.345998 c 0,-0.187157 1.34395,-1.853506 2.98656,-3.702998 4.29316,-4.833862 5.31001,-7.022989 4.3447,-9.353442 -1.47564,-3.562517 -5.61572,-2.917275 -4.88014,0.760585 0.35048,1.752438 0.22896,2.011414 -0.84663,1.804273 -1.8948,-0.364905 -1.90132,-2.323659 -0.014,-4.210964 2.14577,-2.14577 5.02093,-2.203306 6.95998,-0.139279 2.44039,2.597682 1.89492,4.755746 -2.31861,9.173191 l -3.76816,3.950508 h 3.12296 c 2.60698,0 3.22736,-0.247833 3.75478,-1.5 0.54636,-1.297133 0.61108,-1.184429 0.47852,0.833334 l -0.1533,2.333333 -4.83333,0.195873 c -2.65833,0.10773 -4.83333,0.04275 -4.83333,-0.144414 z"
       id="path386" />
</svg>
